<?xml version="1.0" encoding="iso-8859-1"?>
<!-- Generator: Adobe Illustrator 17.1.0, SVG Export Plug-In . SVG Version: 6.00 Build 0)  -->
<!DOCTYPE svg PUBLIC "-//W3C//DTD SVG 1.1//EN" "http://www.w3.org/Graphics/SVG/1.1/DTD/svg11.dtd">
<svg version="1.1" id="Capa_1" xmlns="http://www.w3.org/2000/svg" xmlns:xlink="http://www.w3.org/1999/xlink" x="0px" y="0px"
	 viewBox="0 0 512 512" style="enable-background:new 0 0 512 512;" xml:space="preserve">
<path d="M311.673,464.937l-7.354-154.425C313.464,307.121,320,298.31,320,288c0-10.429-6.689-19.321-16-22.624v-23.623
	c24.782-16.17,40-44.005,40-73.753c0-4.418-3.582-8-8-8h-72v-8c0-8.822,7.178-16,16-16c4.418,0,8-3.582,8-8s-3.582-8-8-8
	c-5.827,0-11.289,1.573-16,4.305V96c0-13.233,10.767-24,24-24s24,10.767,24,24c0,4.418,3.582,8,8,8s8-3.582,8-8
	c0-22.056-17.944-40-40-40c-8.998,0-17.31,2.988-24,8.022V48c0-8.822,7.178-16,16-16c4.418,0,8-3.582,8-8s-3.582-8-8-8
	c-7.49,0-14.381,2.593-19.839,6.92C253.742,9.385,239.949,0,224,0c-22.056,0-40,17.944-40,40c0,4.418,3.582,8,8,8s8-3.582,8-8
	c0-13.233,10.767-24,24-24s24,10.767,24,24v12.305C243.289,49.573,237.827,48,232,48c-4.418,0-8,3.582-8,8s3.582,8,8,8
	c8.822,0,16,7.178,16,16v20.305C243.289,97.573,237.827,96,232,96c-17.645,0-32,14.355-32,32c0,4.418,3.582,8,8,8s8-3.582,8-8
	c0-8.822,7.178-16,16-16s16,7.178,16,16v32h-72c-4.418,0-8,3.582-8,8c0,29.746,15.219,57.583,40,73.752v23.624
	c-9.311,3.303-16,12.195-16,22.624c0,10.31,6.536,19.121,15.681,22.512l-7.354,154.425C186.377,468.383,176,481,176,496.001V504
	c0,4.418,3.582,8,8,8h144c4.418,0,8-3.582,8-8v-7.999C336,481,325.624,468.383,311.673,464.937z M184.45,176H327.55
	c-2.539,22.518-15.677,42.872-35.553,54.371c-0.767,0.444-1.428,1-1.985,1.629h-68.039c-0.559-0.635-1.222-1.196-1.995-1.643
	C200.116,218.855,186.987,198.509,184.45,176z M216,280h32.001c4.418,0,8-3.582,8-8s-3.582-8-8-8H224v-16h64v16h-7.997
	c-4.418,0-8,3.582-8,8s3.582,8,8,8H296c4.411,0,8,3.589,8,8s-3.589,8-8,8h-80c-4.411,0-8-3.589-8-8S211.589,280,216,280z
	 M192,496.001c0-8.822,7.177-16,15.999-16.001c0.002,0,0.005,0,0.007,0c0.002,0,0.003,0,0.005,0h47.993c4.418,0,8-3.582,8-8
	s-3.582-8-8-8H216.39l7.238-152h64.744l7.239,152h-7.612c-4.418,0-8,3.582-8,8s3.582,8,8,8h15.991c0.002,0,0.003,0,0.005,0
	c0.002,0,0.005,0,0.007,0c8.822,0.001,15.999,7.179,15.999,16L192,496.001z"/>
<g>
</g>
<g>
</g>
<g>
</g>
<g>
</g>
<g>
</g>
<g>
</g>
<g>
</g>
<g>
</g>
<g>
</g>
<g>
</g>
<g>
</g>
<g>
</g>
<g>
</g>
<g>
</g>
<g>
</g>
</svg>
