<?xml version="1.0" encoding="iso-8859-1"?>
<!-- Generator: Adobe Illustrator 17.1.0, SVG Export Plug-In . SVG Version: 6.00 Build 0)  -->
<!DOCTYPE svg PUBLIC "-//W3C//DTD SVG 1.1//EN" "http://www.w3.org/Graphics/SVG/1.1/DTD/svg11.dtd">
<svg version="1.1" id="Capa_1" xmlns="http://www.w3.org/2000/svg" xmlns:xlink="http://www.w3.org/1999/xlink" x="0px" y="0px"
	 viewBox="0 0 512.054 512.054" style="enable-background:new 0 0 512.054 512.054;" xml:space="preserve">
<path d="M376.081,31.846H360.07V15.946c0-3.739-2.591-6.98-6.238-7.804c-0.822-0.186-20.391-4.571-42.456-6.814
	c-10.321-1.05-39.165-3.978-55.216,4.715c-7.097-3.957-22.044-8.115-55.482-4.715c-22.065,2.243-41.634,6.629-42.456,6.814
	c-3.647,0.823-6.238,4.064-6.238,7.804v15.899h-16.011c-8.824,0-16.003,7.179-16.003,16.003v120.055
	c0,8.824,7.179,16.003,16.003,16.003h112.054v16.015h-32.018c-4.418,0-8,3.582-8,8s3.582,8,8,8c8.828,0,16.011,7.183,16.011,16.011
	v170.244c-4.776,2.772-8.003,7.931-8.003,13.839v48.024h-32.025c-13.234,0-24,10.767-24,24v16.015c0,4.418,3.582,8,8,8h160.072
	c4.418,0,8-3.582,8-8v-16.015c0-13.233-10.766-24-24-24h-32.025v-48.024c0-5.909-3.228-11.067-8.004-13.84V231.932
	c0-8.828,7.183-16.011,16.011-16.011c4.418,0,8-3.582,8-8s-3.582-8-8-8h-32.018v-16.015h112.054c8.824,0,16.003-7.179,16.003-16.003
	V47.849C392.084,39.025,384.905,31.846,376.081,31.846z M328.063,488.039v8.015H183.991v-8.015c0-4.411,3.589-8,8-8h128.072
	C324.474,480.039,328.063,483.628,328.063,488.039z M240.017,464.039l0.003-48.028l32.018,0.004v48.024H240.017z M264.034,231.932
	v168.079H248.02V231.932c0-5.828-1.566-11.299-4.299-16.011h24.612C265.6,220.633,264.034,226.104,264.034,231.932z M309.619,17.233
	c13.893,1.405,27.031,3.763,34.451,5.225v111.644c-7.947-1.505-19.901-3.526-32.694-4.826c-4.656-0.474-13.079-1.33-22.399-1.33
	c-8.282,0-17.272,0.677-24.95,2.899V19.928C268.596,17.495,280.368,14.273,309.619,17.233z M202.435,17.233
	c29.254-2.961,41.024,0.264,45.592,2.695V130.76c-8.888-2.473-23.367-3.924-47.349-1.485c-12.793,1.3-24.747,3.321-32.694,4.826
	V39.884c0-0.013,0.002-0.025,0.002-0.039s-0.002-0.025-0.002-0.039v-17.35C175.404,20.995,188.542,18.638,202.435,17.233z
	 M376.081,167.906l-240.111-0.003l0.003-120.058h16.011v96.047c0,2.431,1.106,4.729,3.004,6.248s4.385,2.093,6.756,1.556
	c0.193-0.043,19.569-4.382,40.69-6.519c36.859-3.729,45.962,2.357,47.875,4.311c0.01,0.01,0.021,0.018,0.03,0.028
	c0.134,0.136,0.277,0.262,0.42,0.388c0.055,0.048,0.106,0.101,0.162,0.148c0.009,0.007,0.018,0.016,0.028,0.023
	c0.012,0.01,0.025,0.018,0.037,0.028c0.265,0.215,0.548,0.409,0.84,0.59c0.062,0.038,0.123,0.076,0.186,0.113
	c0.313,0.182,0.636,0.347,0.974,0.486c0.006,0.002,0.011,0.006,0.017,0.008c0.053,0.021,0.107,0.036,0.16,0.057
	c0.182,0.07,0.365,0.138,0.554,0.195c0.083,0.025,0.166,0.042,0.249,0.064c0.162,0.043,0.323,0.088,0.489,0.121
	c0.006,0.001,0.012,0.002,0.018,0.003c0.125,0.025,0.252,0.039,0.378,0.057c0.127,0.019,0.251,0.043,0.38,0.056
	c0.005,0,0.01,0.001,0.014,0.001c0.259,0.025,0.519,0.039,0.778,0.039c0,0,0.001,0,0.001,0c0,0,0.001,0,0.001,0c0,0,0.001,0,0.001,0
	c0,0,0.001,0,0.001,0c0.259,0,0.519-0.013,0.778-0.039c0.005,0,0.01-0.001,0.014-0.001c0.128-0.013,0.253-0.037,0.38-0.056
	c0.126-0.019,0.252-0.032,0.378-0.057c0.006-0.001,0.012-0.002,0.018-0.003c0.166-0.033,0.327-0.078,0.489-0.121
	c0.083-0.022,0.166-0.039,0.249-0.064c0.006-0.002,0.013-0.003,0.019-0.005c0.001,0,0.003,0,0.004-0.001
	c0.181-0.055,0.355-0.122,0.531-0.189c0.053-0.021,0.107-0.035,0.16-0.057c0.006-0.002,0.011-0.006,0.017-0.008
	c0.338-0.139,0.662-0.304,0.974-0.486c0.063-0.037,0.125-0.075,0.186-0.113c0.292-0.181,0.574-0.375,0.84-0.59
	c0.012-0.01,0.025-0.018,0.037-0.028c0.009-0.007,0.018-0.015,0.027-0.022c0.058-0.048,0.112-0.104,0.169-0.154
	c0.141-0.124,0.282-0.249,0.414-0.382c0.01-0.01,0.021-0.018,0.03-0.028c1.912-1.953,11.018-8.036,47.875-4.311
	c21.121,2.137,40.497,6.476,40.69,6.519c2.37,0.534,4.857-0.037,6.756-1.556c1.898-1.519,3.004-3.817,3.004-6.248V47.847
	l16.014,0.002L376.081,167.906z"/>
<g>
</g>
<g>
</g>
<g>
</g>
<g>
</g>
<g>
</g>
<g>
</g>
<g>
</g>
<g>
</g>
<g>
</g>
<g>
</g>
<g>
</g>
<g>
</g>
<g>
</g>
<g>
</g>
<g>
</g>
</svg>
