<?xml version="1.0"?>
<svg xmlns="http://www.w3.org/2000/svg" xmlns:xlink="http://www.w3.org/1999/xlink" xmlns:svgjs="http://svgjs.com/svgjs" version="1.1" width="512" height="512" x="0" y="0" viewBox="0 0 452.35 452.35" style="enable-background:new 0 0 512 512" xml:space="preserve" class=""><g>
<path xmlns="http://www.w3.org/2000/svg" style="" d="M388.375,374.85v44.8c0,12.7-10.3,23-22.9,23h-19.1c-12.7,0-22.9-10.3-22.9-23v-21.4v-0.4h42.1  C378.075,397.75,388.375,387.55,388.375,374.85z" fill="#f7cc46" data-original="#fdc75b" class=""/>
<path xmlns="http://www.w3.org/2000/svg" style="" d="M388.375,369.15v5.7c0,12.7-10.3,23-22.9,23h-42.1h-194.4h-42.1c-12.7,0-22.9-10.3-22.9-23v-15.3  v-41.8c0-10.1,4.4-19.7,12.2-26.2l13.1-11.1h160.7h84.9h32.9v0.4l9.9,9.3c6.9,6.5,10.8,15.5,10.8,25v54H388.375z M354.675,361.45  v-37.5h-54.7v37.5H354.675z M152.375,361.45v-37.5h-54.7v37.5H152.375z" fill="#ff9900" data-original="#ed664c" class=""/>
<g xmlns="http://www.w3.org/2000/svg">
	<path style="" d="M343.175,220.65l25.6,59.7h-1.1h-32.9c0-23.3-19.1-42.5-42.5-42.5c-23.3,0-42.5,19.1-42.5,42.5   h-160.5h-1.1l25.6-59.7c3.7-8.6,12.2-14.2,21.6-14.2h186.3C330.975,206.45,339.475,212.05,343.175,220.65z" fill="#f7cc46" data-original="#fdc75b" class=""/>
	<rect x="299.975" y="323.95" style="" width="54.7" height="37.5" fill="#f7cc46" data-original="#fdc75b" class=""/>
	<path style="" d="M334.775,280.35h-84.9c0-23.3,19.1-42.5,42.5-42.5C315.675,237.85,334.775,257.05,334.775,280.35z" fill="#f7cc46" data-original="#fdc75b" class=""/>
</g>
<circle xmlns="http://www.w3.org/2000/svg" style="" cx="226.175" cy="128.25" r="25.8" fill="#ff9900" data-original="#ed664c" class=""/>
<g xmlns="http://www.w3.org/2000/svg">
	<rect x="97.675" y="323.95" style="" width="54.7" height="37.5" fill="#f7cc46" data-original="#fdc75b" class=""/>
	<path style="" d="M128.975,398.15v21.4c0,12.7-10.3,23-22.9,23h-19.1c-12.7,0-22.9-10.3-22.9-23v-44.8   c0,12.7,10.3,23,22.9,23h42.1v0.4H128.975z" fill="#f7cc46" data-original="#fdc75b" class=""/>
</g>
<path xmlns="http://www.w3.org/2000/svg" d="M384.375,282.75l-6.2-5.9c-0.1-0.2-0.1-0.3-0.2-0.5l-25.6-59.8c-5.3-12.3-17.3-20.3-30.7-20.3h-186.4  c-13.4,0-25.5,8-30.8,20.3l-25.3,59.2l-9.4,8.1c-10,8.4-15.6,20.8-15.6,33.9v57.1v44.8c0,18.2,14.6,32.7,32.8,32.7h19.1  c18.2,0,33.1-14.5,33.1-32.7v-11.4h174v11.3c0,18.2,14.9,32.7,33.1,32.7h19.1c18.2,0,32.8-14.5,32.8-32.7v-44.8v-59.8  C398.175,302.95,393.175,291.15,384.375,282.75z M122.875,224.45c2.1-5,7-8.2,12.4-8.2h186.3c5.4,0,10.3,3.2,12.4,8.2l19.7,45.8  h-9.8c-4.7-24-26-42.4-51.5-42.4s-46.8,18.4-51.5,42.4h-137.6L122.875,224.45z M323.175,270.25h-61.7c4.2-13,16.5-22.4,30.9-22.4  C306.775,247.85,318.975,257.25,323.175,270.25z M74.175,317.75c0-7.2,3.1-14,8.5-18.7l10.2-8.8h270.4l7.3,7  c4.9,4.6,7.6,11.1,7.6,17.8v59.8c0,7.1-5.6,13.4-12.8,13.4h-278.4c-7.1,0-12.8-6.3-12.8-13.4V317.75z M119.175,419.55  c0,7.1-6,12.7-13.1,12.7h-19.1c-7.1,0-12.8-5.5-12.8-12.7v-14.5c4,1.7,8.2,3.1,12.8,3.1h32.2V419.55z M365.375,432.25h-19.1  c-7.1,0-13.1-5.5-13.1-12.7v-11.3h32.2c4.6,0,8.8-1.4,12.8-3.1v14.5C378.175,426.75,372.575,432.25,365.375,432.25z" fill="#282828" data-original="#000000" style="" class=""/>
<path xmlns="http://www.w3.org/2000/svg" d="M162.175,324.25c0-5.5-4.5-10-10-10h-55c-5.5,0-10,4.5-10,10v37c0,5.5,4.5,10,10,10h55c5.5,0,10-4.5,10-10V324.25z   M107.175,334.25h35v17h-35V334.25z" fill="#282828" data-original="#000000" style="" class=""/>
<path xmlns="http://www.w3.org/2000/svg" d="M365.175,324.25c0-5.5-4.5-10-10-10h-55c-5.5,0-10,4.5-10,10v37c0,5.5,4.5,10,10,10h55c5.5,0,10-4.5,10-10V324.25z   M310.175,334.25h35v17h-35V334.25z" fill="#282828" data-original="#000000" style="" class=""/>
<path xmlns="http://www.w3.org/2000/svg" d="M191.175,369.25h70c5.5,0,10-4.5,10-10s-4.5-10-10-10h-70c-5.5,0-10,4.5-10,10S185.675,369.25,191.175,369.25z" fill="#282828" data-original="#000000" style="" class=""/>
<path xmlns="http://www.w3.org/2000/svg" d="M191.175,341.25h70c5.5,0,10-4.5,10-10s-4.5-10-10-10h-70c-5.5,0-10,4.5-10,10S185.675,341.25,191.175,341.25z" fill="#282828" data-original="#000000" style="" class=""/>
<path xmlns="http://www.w3.org/2000/svg" d="M190.375,128.25c0,19.8,16.1,35.8,35.8,35.8s35.8-16.1,35.8-35.8s-16.1-35.8-35.8-35.8S190.375,108.45,190.375,128.25z   M241.975,128.25c0,8.7-7.1,15.8-15.8,15.8s-15.8-7.1-15.8-15.8s7.1-15.8,15.8-15.8S241.975,119.55,241.975,128.25z" fill="#282828" data-original="#000000" style="" class=""/>
<path xmlns="http://www.w3.org/2000/svg" d="M287.375,93.35c2.6,0,5.1-1,7.1-2.9c3.9-3.9,3.9-10.2,0-14.1c-37.7-37.7-98.9-37.7-136.6,0c-3.9,3.9-3.9,10.2,0,14.1  s10.2,3.9,14.1,0c29.9-29.9,78.4-29.9,108.3,0C282.275,92.35,284.875,93.35,287.375,93.35z" fill="#282828" data-original="#000000" style="" class=""/>
<path xmlns="http://www.w3.org/2000/svg" d="M328.175,62.15c2.6,0,5.1-1,7.1-2.9c3.9-3.9,3.9-10.2,0-14.1c-60.2-60.2-158.1-60.2-218.2,0c-3.9,3.9-3.9,10.2,0,14.1  s10.2,3.9,14.1,0c52.4-52.4,137.6-52.4,189.9,0C323.075,61.15,325.675,62.15,328.175,62.15z" fill="#282828" data-original="#000000" style="" class=""/>
<g xmlns="http://www.w3.org/2000/svg">
</g>
<g xmlns="http://www.w3.org/2000/svg">
</g>
<g xmlns="http://www.w3.org/2000/svg">
</g>
<g xmlns="http://www.w3.org/2000/svg">
</g>
<g xmlns="http://www.w3.org/2000/svg">
</g>
<g xmlns="http://www.w3.org/2000/svg">
</g>
<g xmlns="http://www.w3.org/2000/svg">
</g>
<g xmlns="http://www.w3.org/2000/svg">
</g>
<g xmlns="http://www.w3.org/2000/svg">
</g>
<g xmlns="http://www.w3.org/2000/svg">
</g>
<g xmlns="http://www.w3.org/2000/svg">
</g>
<g xmlns="http://www.w3.org/2000/svg">
</g>
<g xmlns="http://www.w3.org/2000/svg">
</g>
<g xmlns="http://www.w3.org/2000/svg">
</g>
<g xmlns="http://www.w3.org/2000/svg">
</g>
</g></svg>
