<svg id="Capa_1" enable-background="new 0 0 512 512" height="512" viewBox="0 0 512 512" width="512" xmlns="http://www.w3.org/2000/svg"><path d="m216.579 462.937c0-12.022-9.78-21.802-21.803-21.802s-21.803 9.78-21.803 21.802 9.78 21.803 21.803 21.803 21.803-9.781 21.803-21.803zm-21.803 6.803c-3.751 0-6.803-3.052-6.803-6.803s3.052-6.802 6.803-6.802 6.803 3.051 6.803 6.802-3.052 6.803-6.803 6.803z"/><path d="m290.588 49.261-77.625 135.479c-7.421 12.952 1.402 29.583 15.901 29.583h155.249c14.496 0 23.323-16.629 15.901-29.583l-77.624-135.479c-7.217-12.595-24.596-12.576-31.802 0zm93.526 150.062h-155.249c-2.746 0-4.666-4.018-2.886-7.125l77.625-135.48c1.447-2.527 4.319-2.534 5.771 0l77.625 135.479c1.79 3.125-.156 7.126-2.886 7.126z"/><path d="m306.405 163.937c-5.529 0-9.677 4.399-9.677 9.677 0 5.153 4.147 9.677 9.677 9.677 5.152 0 9.551-4.524 9.551-9.677 0-5.278-4.399-9.677-9.551-9.677z"/><path d="m297.105 98.337c0 14.955 1.759 36.445 1.759 51.399 0 3.896 3.394 5.53 7.415 5.53 3.017 0 7.289-1.634 7.289-5.53 0-14.955 1.76-36.445 1.76-51.399 0-4.901-4.147-7.666-9.049-7.666-5.153 0-9.174 2.765-9.174 7.666z"/><path d="m455.916 120.823c4.143 0 7.5-3.358 7.5-7.5v-78.352c0-19.283-15.688-34.971-34.971-34.971h-243.911-96.779c-21.598 0-39.171 17.572-39.171 39.171v433.657c0 21.599 17.572 39.171 39.171 39.171h89.521c4.143 0 7.5-3.358 7.5-7.5s-3.357-7.5-7.5-7.5h-89.521c-13.328 0-24.171-10.843-24.171-24.171v-433.657c0-13.328 10.843-24.171 24.171-24.171h68.084c-4.023 5.718-6.277 12.879-6.277 19.971v29.445c-11.079 0-44.893 0-56.024 0-9.912 0-17.976 8.064-17.976 17.976v330.435c0 9.912 8.063 17.976 17.976 17.976h202.476c9.912 0 17.976-8.064 17.976-17.976v-149.648h11.979v209.649c0 13.328-10.844 24.171-24.172 24.171h-89.52c-4.143 0-7.5 3.358-7.5 7.5s3.357 7.5 7.5 7.5h89.52c21.6 0 39.172-17.572 39.172-39.171v-209.649h32.178c.586 0 1.063.477 1.063 1.063v58.968c0 9.893 8.861 17.48 18.584 15.867 40.219-6.674 70.624-41.625 70.624-83.397v-107.357c0-4.142-3.357-7.5-7.5-7.5s-7.5 3.358-7.5 7.5v107.356c0 34.165-24.426 63.015-58.079 68.599-.101.017-.396.066-.732-.217-.148-.126-.396-.403-.396-.852v-58.968c0-8.857-7.206-16.063-16.063-16.063-8.113 0-180.784 0-188.611 0-11.013 0-19.972-8.959-19.972-19.971 0-9.301 0-182.902 0-193.237 0-11.012 8.959-19.971 19.972-19.971h243.911c11.012 0 19.971 8.959 19.971 19.971v78.352c-.003 4.143 3.354 7.501 7.497 7.501zm-322.51-41.406h16.156v33.3h-16.156zm-42.844 2.975c0-1.641 1.335-2.976 2.976-2.976h24.868v33.3h-27.844zm93.972 180.787h114.455v149.647c0 1.641-1.335 2.976-2.976 2.976h-202.475c-1.641 0-2.976-1.335-2.976-2.976v-285.11h59v100.491c0 19.284 15.688 34.972 34.972 34.972z"/></svg>