<?xml version="1.0"?>
<svg xmlns="http://www.w3.org/2000/svg" xmlns:xlink="http://www.w3.org/1999/xlink" xmlns:svgjs="http://svgjs.com/svgjs" version="1.1" width="512" height="512" x="0" y="0" viewBox="0 0 512 512" style="enable-background:new 0 0 512 512" xml:space="preserve" class=""><g><path xmlns="http://www.w3.org/2000/svg" d="m426.5 140h-357.5c-8.28125 0-15 6.714844-15 15s6.71875 15 15 15h357.5c30.601562 0 55.5 24.898438 55.5 55.5s-24.898438 55.5-55.5 55.5h-341c-47.144531 0-85.5 38.355469-85.5 85.5s38.355469 85.5 85.5 85.5h277.5c8.28125 0 15-6.714844 15-15s-6.71875-15-15-15h-277.5c-30.601562 0-55.5-24.898438-55.5-55.5s24.898438-55.5 55.5-55.5h341c47.144531 0 85.5-38.355469 85.5-85.5s-38.355469-85.5-85.5-85.5zm0 0" fill="#282828" data-original="#3aaaff" style="" class=""/><path xmlns="http://www.w3.org/2000/svg" d="m70 170c-19.839844 0-38.214844-23.777344-47.398438-37.949219-14.152343-21.835937-22.601562-45.03125-22.601562-62.050781 0-38.597656 31.402344-70 70-70s70 31.402344 70 70c0 17.019531-8.449219 40.214844-22.601562 62.050781-9.183594 14.171875-27.558594 37.949219-47.398438 37.949219zm-.613281-29.949219c0 .003907 0 .003907 0 0zm0 0" fill="#ff9900" data-original="#ff415b" style="" class=""/><path xmlns="http://www.w3.org/2000/svg" d="m363 422h-107v30h107c8.28125 0 15-6.714844 15-15 0-8.28125-6.71875-15-15-15zm0 0" fill="#525252" data-original="#008adf" style="" class=""/><path xmlns="http://www.w3.org/2000/svg" d="m426.5 140h-170.5v30h170.5c30.601562 0 55.5 24.898438 55.5 55.5s-24.898438 55.5-55.5 55.5h-170.5v30h170.5c47.144531 0 85.5-38.355469 85.5-85.5s-38.355469-85.5-85.5-85.5zm0 0" fill="#525252" data-original="#008adf" style="" class=""/><path xmlns="http://www.w3.org/2000/svg" d="m70 85c8.261719 0 15-6.738281 15-15s-6.738281-15-15-15-15 6.738281-15 15 6.738281 15 15 15zm0 0" fill="#f3eee9" fill-rule="evenodd" data-original="#f3eee9" style="" class=""/><path xmlns="http://www.w3.org/2000/svg" d="m437 508.5c-41.355469 0-75-33.644531-75-75s33.644531-75 75-75 75 33.644531 75 75-33.644531 75-75 75zm0 0" fill="#282828" data-original="#ebb100" style="" class=""/><path xmlns="http://www.w3.org/2000/svg" d="m437 448.5c8.261719 0 15-6.738281 15-15s-6.738281-15-15-15-15 6.738281-15 15 6.738281 15 15 15zm0 0" fill="#e9dfda" fill-rule="evenodd" data-original="#e9dfda" style="" class=""/></g></svg>
