<svg id="icons_Q2" data-name="icons Q2" xmlns="http://www.w3.org/2000/svg" width="38.329" height="31.36" viewBox="0 0 38.329 31.36">
  <path id="Trazado_463" data-name="Trazado 463" d="M13.84,21.68A7.84,7.84,0,1,0,6,13.84,7.84,7.84,0,0,0,13.84,21.68Zm0-12.2A4.356,4.356,0,1,1,9.484,13.84,4.356,4.356,0,0,1,13.84,9.484Z" transform="translate(-2.516 -6)"/>
  <path id="Trazado_464" data-name="Trazado 464" d="M34.1,22.2A6.1,6.1,0,1,0,28,16.1a6.1,6.1,0,0,0,6.1,6.1Zm0-8.711A2.613,2.613,0,1,1,31.484,16.1,2.526,2.526,0,0,1,34.1,13.484Z" transform="translate(-5.351 -6.516)"/>
  <path id="Trazado_465" data-name="Trazado 465" d="M40.329,28.961l-.784-.523a17.074,17.074,0,0,0-17.6,0l-.7.523a21.429,21.429,0,0,0-7.056-1.22,20.384,20.384,0,0,0-11.412,3.4L2,31.662V38.2a1.742,1.742,0,0,0,1.742,1.742H24.649A1.742,1.742,0,0,0,26.391,38.2V36.453h12.2a1.742,1.742,0,0,0,1.742-1.742ZM22.907,36.453H5.484V33.578A16.987,16.987,0,0,1,14.2,31.226a16.987,16.987,0,0,1,8.711,2.352Zm13.938-3.484H26.391V31.662l-.784-.523-.523-.348a13.328,13.328,0,0,1,11.76.174Z" transform="translate(-2 -8.577)"/>
</svg>
